<svg width="154" height="66" fill="none" xmlns="http://www.w3.org/2000/svg"><path d="M62.54 36.626v3.114h-1.437c-.473 0-.868-.106-1.185-.315-.318-.21-.476-.583-.476-1.121 0-.517.132-.925.395-1.227.264-.3.67-.451 1.218-.451h1.484zm-3.034-1.468c-.398.15-.74.37-1.024.661a3 3 0 00-.662 1.057c-.156.414-.233.88-.233 1.396 0 .59.123 1.137.37 1.637.248.5.672.852 1.275 1.057-.377.15-.656.387-.84.71a4.495 4.495 0 00-.434 1.129l-.759 3.355h1.92l.678-3.033c.172-.666.414-1.12.726-1.363a1.62 1.62 0 011.016-.363h1v4.76h1.856V34.93h-3.566c-.484 0-.925.076-1.323.227zm12.114 4.486h-3.16v-4.711h-1.856V46.16h1.856v-4.856h3.162v4.856h1.84V34.933h-1.84v4.71zm10.2-4.711h-6.793v1.678h2.469v9.55h1.839v-9.55h2.484v-1.678zm2.84 7.162l.581-2.259.533-2.355h.08c.011.097.043.255.097.476l.17.701c.059.248.113.484.161.71l.105.485.565 2.242H84.66zm.259-7.163L81.676 46.16h1.92c.032-.096.078-.258.137-.483a70.328 70.328 0 01.395-1.452c.065-.226.108-.388.13-.485h3.113l.63 2.42h1.952l-3.26-11.228H84.92zm11.23 4.705c-.264.316-.67.474-1.218.474h-1.55v-3.47h1.533c.55 0 .958.148 1.227.443.269.294.403.72.403 1.276 0 .535-.132.961-.395 1.277zm1.283-3.858a2.88 2.88 0 00-1.081-.637c-.42-.14-.893-.21-1.42-.21h-3.388V46.16h1.839v-4.307h1.646c.559 0 1.048-.089 1.468-.266.419-.177.766-.422 1.04-.734s.481-.678.622-1.098c.139-.419.21-.87.21-1.355 0-.591-.082-1.104-.243-1.54a2.798 2.798 0 00-.693-1.081zm7.218 8.204c-.258.312-.667.467-1.226.467h-1.566v-3.356h1.55c.581 0 .997.146 1.25.436.253.29.379.694.379 1.21 0 .517-.129.93-.387 1.243zm2.041-2.641a2.73 2.73 0 00-.621-1.052 2.94 2.94 0 00-1.057-.687c-.425-.167-.933-.25-1.525-.25h-1.613v-4.421h-1.855V46.16h3.468c1.054 0 1.885-.293 2.493-.88.608-.588.911-1.454.911-2.597 0-.484-.067-.931-.201-1.341zM64.288 15.994a2.2 2.2 0 01-1.438.506h-1.964v-4.403h1.933c.65 0 1.159.167 1.533.502.368.329.56.877.56 1.642 0 .83-.209 1.408-.624 1.753zm2.642-5.956c-.495-.459-1.1-.798-1.804-1.017-.709-.226-1.474-.332-2.307-.332h-5.62v17.715h3.687v-6.463h2.14c.848 0 1.611-.136 2.29-.411a5.015 5.015 0 001.737-1.138 5.236 5.236 0 001.092-1.793c.25-.69.38-1.463.38-2.307 0-.97-.142-1.802-.42-2.512a4.602 4.602 0 00-1.175-1.742zm11.951 11.048c0 .596-.185 1.056-.57 1.398-.382.34-.839.51-1.358.51-.732 0-1.25-.216-1.568-.658-.316-.442-.472-1-.472-1.683v-6.568c0-.202.038-.42.112-.647.082-.231.2-.442.36-.638.162-.192.37-.351.626-.48.254-.131.573-.197.943-.197.367 0 .68.08.925.217.25.151.447.318.601.522a2.106 2.106 0 01.401 1.223v7zm2.347-10.73c-.457-.53-1.042-.964-1.757-1.295-.716-.334-1.554-.498-2.517-.498-1.04 0-1.92.17-2.636.518-.721.348-1.312.797-1.765 1.342a5.014 5.014 0 00-1.002 1.82 7.07 7.07 0 00-.31 1.999v6.307c0 .806.113 1.568.324 2.293a5.431 5.431 0 001.005 1.924c.465.55 1.05.986 1.773 1.308.72.325 1.597.485 2.61.485.83 0 1.587-.132 2.278-.394a4.878 4.878 0 001.775-1.143 5.083 5.083 0 001.172-1.813c.281-.701.425-1.494.425-2.375v-6.592a6.49 6.49 0 00-.343-2.065 5.44 5.44 0 00-1.032-1.821zm8.735 3.081a1.802 1.802 0 01.934-1.12c.257-.13.57-.192.952-.192.35 0 .656.069.912.2.25.14.466.305.632.485a1.9 1.9 0 01.376.627c.072.228.126.433.162.596l3.49-1.044a6.432 6.432 0 00-.61-1.668c-.298-.533-.671-1-1.127-1.405a5.11 5.11 0 00-1.652-.985c-.646-.248-1.371-.367-2.183-.367-1.042 0-1.918.169-2.643.516-.719.351-1.301.797-1.754 1.34a5.15 5.15 0 00-.98 1.824 6.706 6.706 0 00-.314 1.997v6.31c0 .804.114 1.562.328 2.29.212.732.543 1.37.991 1.924.448.55 1.04.986 1.759 1.305.716.328 1.593.49 2.613.49 1.437 0 2.66-.392 3.66-1.171.997-.783 1.63-1.86 1.887-3.233l-3.514-1.021c-.071.579-.298 1.03-.691 1.363a2.04 2.04 0 01-1.342.496c-.74 0-1.248-.214-1.548-.658-.295-.443-.445-1.001-.445-1.683v-6.569c0-.202.031-.42.107-.647zm14.354 0c.073-.23.183-.442.328-.639.156-.191.361-.353.612-.481.256-.13.573-.192.945-.192.354 0 .654.069.913.2a2.6 2.6 0 01.638.485c.17.188.295.396.367.627.072.228.131.433.166.596l3.487-1.044a6.105 6.105 0 00-.611-1.668c-.282-.533-.663-1-1.121-1.405a5.24 5.24 0 00-1.649-.985c-.651-.248-1.383-.367-2.19-.367-1.038 0-1.915.169-2.634.516-.727.351-1.31.797-1.759 1.34a5.27 5.27 0 00-.981 1.824 6.883 6.883 0 00-.301 1.997v6.31c0 .804.1 1.562.315 2.29.209.732.536 1.37.991 1.924.45.55 1.041.986 1.76 1.305.716.328 1.586.49 2.609.49 1.441 0 2.66-.392 3.662-1.171 1-.783 1.625-1.86 1.882-3.233l-3.507-1.021a2.024 2.024 0 01-2.037 1.86c-.733-.001-1.247-.215-1.542-.66-.299-.442-.447-1-.447-1.682v-6.569c0-.202.035-.42.104-.647zm-73.383 1.04l4.961 30.875c5.511-3.058 9.709-8.187 11.515-14.357L31.716 14.106a3.033 3.033 0 01-.782.37zm13.041-4.26l-10.814 1.3a3.27 3.27 0 01-.556 1.704L48.11 27.917c.186-1.221.29-2.476.29-3.761a24.082 24.082 0 00-4.425-13.94zM29.969 8.111a3.294 3.294 0 012.952 2.02l9.234-2.198A24.113 24.113 0 0025.736.007L29.15 8.21c.26-.058.532-.102.819-.099zm30.559 47.215v.703h-2.697v-.703h2.697zm-4.257 1.496h.819c.07.46.225.814.466 1.06.24.248.627.372 1.157.372.375 0 .688-.106.94-.317.253-.21.443-.49.569-.837.127-.348.191-.726.191-1.135v-.729c0-.451-.071-.849-.214-1.192a1.8 1.8 0 00-.61-.805 1.565 1.565 0 00-.953-.29c-.324 0-.592.057-.805.172-.213.115-.38.28-.499.495-.119.215-.2.474-.242.777h-.819a2.78 2.78 0 01.342-1.112c.188-.326.449-.582.783-.767.337-.188.75-.282 1.24-.282.533 0 .993.125 1.381.374.388.247.687.596.898 1.045.211.448.316.972.316 1.573v.754c0 .6-.104 1.125-.313 1.572a2.453 2.453 0 01-.879 1.04c-.377.244-.819.367-1.326.367-.52 0-.952-.094-1.297-.282a2.043 2.043 0 01-.796-.767 2.823 2.823 0 01-.349-1.086zm9.477-.755v.704h-2.71v-.703h2.71zm-2.53-2.109v4.91h-.755v-4.91h.754zm3.106 0v4.91h-.755v-4.91h.755zm3.435 5.011c-.473 0-.88-.104-1.224-.313a2.102 2.102 0 01-.79-.882c-.182-.38-.274-.82-.274-1.323s.092-.946.275-1.33a2.16 2.16 0 01.773-.9c.333-.218.72-.327 1.164-.327.255 0 .508.043.757.128.25.085.476.224.68.416.205.19.368.44.49.754.121.313.182.699.182 1.157v.32h-3.784v-.653h3.017a1.61 1.61 0 00-.166-.741 1.252 1.252 0 00-.467-.515 1.307 1.307 0 00-.71-.188c-.3 0-.56.074-.78.223a1.472 1.472 0 00-.501.576 1.69 1.69 0 00-.176.76v.435c0 .37.064.685.192.943.13.256.31.45.54.585.23.132.498.198.802.198.198 0 .377-.028.537-.083.162-.058.302-.143.419-.256.117-.115.208-.258.272-.428l.728.204a1.615 1.615 0 01-.386.652c-.181.186-.405.33-.672.435a2.49 2.49 0 01-.898.153zm3.18 1.74v-6.75h.73v.779h.088a8.17 8.17 0 01.23-.326c.1-.134.244-.254.429-.358.187-.107.441-.16.76-.16.414 0 .778.104 1.094.31.315.207.561.5.738.88.177.378.265.826.265 1.341 0 .52-.088.971-.265 1.352-.177.38-.422.674-.735.882-.313.207-.674.31-1.084.31-.315 0-.567-.052-.757-.156a1.405 1.405 0 01-.438-.361 4.84 4.84 0 01-.237-.34h-.063v2.596h-.755zm.742-4.296c0 .37.054.697.163.98.109.282.267.503.476.662.209.158.465.237.767.237.315 0 .579-.083.79-.25.213-.168.372-.394.479-.677.109-.285.163-.603.163-.952 0-.345-.053-.657-.16-.934a1.433 1.433 0 00-.476-.661c-.211-.164-.476-.246-.796-.246-.307 0-.565.078-.773.233a1.401 1.401 0 00-.473.646c-.107.274-.16.595-.16.962zm7.773-2.455v.703h-2.276v4.206h-.754v-4.909h3.03zm2.84 5.011a2.14 2.14 0 01-1.166-.316 2.15 2.15 0 01-.78-.885c-.186-.38-.278-.823-.278-1.33 0-.511.092-.958.278-1.339a2.14 2.14 0 01.78-.888 2.14 2.14 0 011.166-.317c.443 0 .831.106 1.163.317.335.21.595.507.78.888.188.382.282.828.282 1.34 0 .506-.094.95-.282 1.329a2.116 2.116 0 01-.78.885c-.332.211-.72.316-1.163.316zm0-.677c.337 0 .614-.086.831-.259.217-.173.378-.4.483-.68.104-.282.156-.587.156-.915a2.64 2.64 0 00-.156-.917 1.546 1.546 0 00-.483-.687c-.217-.175-.494-.262-.831-.262-.337 0-.614.087-.83.262a1.545 1.545 0 00-.483.687 2.62 2.62 0 00-.157.917c0 .328.052.633.157.914.104.282.265.508.482.681.217.173.494.259.831.259zm5.37.677c-.46 0-.856-.108-1.189-.325a2.125 2.125 0 01-.767-.899 3.042 3.042 0 01-.268-1.307c0-.498.091-.938.275-1.32.185-.383.443-.683.773-.898.332-.217.72-.326 1.163-.326.346 0 .657.064.934.192s.504.307.68.537c.177.23.287.498.33.805h-.755a1.17 1.17 0 00-.383-.594c-.196-.175-.46-.262-.793-.262-.294 0-.552.076-.773.23a1.5 1.5 0 00-.515.642 2.38 2.38 0 00-.182.969c0 .379.06.71.179.99.121.282.292.5.511.656.222.155.482.233.78.233.196 0 .374-.034.534-.102a1.102 1.102 0 00.642-.755h.754a1.746 1.746 0 01-.977 1.333c-.273.134-.59.201-.953.201zm6.677-6.852l.383.46a1.23 1.23 0 01-.518.304 2.892 2.892 0 01-.664.105c-.248.013-.522.026-.825.039-.34.013-.623.096-.847.25a1.468 1.468 0 00-.518.664c-.121.29-.199.645-.233 1.067h.064a1.56 1.56 0 01.69-.677c.294-.145.61-.218.946-.218.384 0 .729.09 1.036.269.307.179.55.444.728.796.18.351.269.785.269 1.3 0 .514-.092.957-.275 1.33-.181.373-.436.66-.764.863-.326.2-.708.3-1.147.3-.439 0-.824-.103-1.154-.31-.33-.208-.587-.517-.77-.926-.183-.412-.275-.92-.275-1.525v-.524c0-1.093.185-1.922.556-2.487.373-.564.933-.856 1.681-.875.265-.009.5-.01.707-.007a3.17 3.17 0 00.54-.028.775.775 0 00.39-.17zm-1.675 6.175c.296 0 .55-.075.764-.224.215-.149.38-.359.495-.63.115-.272.173-.593.173-.961 0-.358-.059-.663-.176-.914a1.278 1.278 0 00-.495-.576 1.45 1.45 0 00-.774-.198c-.22 0-.416.037-.591.112a1.2 1.2 0 00-.448.33 1.53 1.53 0 00-.287.53 2.506 2.506 0 00-.106.716c0 .55.13.99.387 1.32.258.33.61.495 1.058.495zm3.992-2.557h1.406c.575 0 1.015.146 1.32.438.305.292.457.661.457 1.109 0 .294-.068.561-.205.802-.136.239-.336.43-.6.572-.265.14-.588.211-.972.211h-2.058v-4.909h.754v4.206h1.304c.298 0 .543-.079.735-.236a.75.75 0 00.288-.608.798.798 0 00-.288-.636c-.192-.164-.437-.246-.735-.246h-1.406v-.703zm3.963 3.132v-4.909h.754v4.91h-.754zm1.854-4.206v-.703h3.988v.703h-1.611v4.206h-.754v-4.206h-1.623zm10.814-28.257h10.306V22.92h-6.618v-3.767h5.699v-3.39h-5.699v-3.662h6.618V8.69h-10.306v17.715zm12.34-14.355h3.793v14.355h3.668V12.05h3.787V8.69h-11.248v3.36zm23.037-3.359l-5.063 10.285h-.052V8.69h-3.668v17.715h3.462l4.94-9.643h.024v9.643h3.69V8.69h-3.333zM29.083 14.549l-14.095 32a24.24 24.24 0 009.216 1.813c3.19 0 6.228-.622 9.02-1.75l-3.499-31.967a3.016 3.016 0 01-.642-.096zm-1.583-.95L1 31.058A24.278 24.278 0 0012.435 45.31l15.55-31.27a3.003 3.003 0 01-.485-.441zm.346-4.746L22.78 0C16.193.38 10.31 3.393 6.17 8.012l20.593 2.466a3.26 3.26 0 011.082-1.625zm-1.182 2.887l-22.49-1.177A24.068 24.068 0 000 24.157c0 1.358.113 2.695.332 3.989L26.844 12.56a3.18 3.18 0 01-.18-.82z" fill="#005999"/></svg>